<svg width="45" height="45" viewBox="0 0 45 45" fill="none" xmlns="http://www.w3.org/2000/svg">
<circle cx="22.5" cy="22.5" r="22.5" fill="#1F2E4D"/>
<path fill-rule="evenodd" clip-rule="evenodd" d="M16.7817 10.822C15.6637 10.2894 14.3315 10.5186 13.4558 11.3943C13.4555 11.3939 13.4555 11.3939 13.4554 11.394C12.5798 12.2697 12.3505 13.602 12.8831 14.72C13.2308 15.4537 13.6224 16.204 13.9266 16.5758C14.4891 17.2633 15.4875 18.3863 16.2821 17.9891C17.5383 17.361 19.4226 15.4766 20.0507 14.2204C20.448 13.4259 19.325 12.4275 18.6375 11.865C18.2657 11.5607 17.5155 11.1692 16.7817 10.822Z" fill="white"/>
<path fill-rule="evenodd" clip-rule="evenodd" d="M18.6364 14.5355C18.6364 14.5355 17.4041 12.8699 16.7581 12.5368C16.1659 12.2316 14.7594 12.5368 14.7594 12.5368L18.6364 14.5355Z" fill="black"/>
<path fill-rule="evenodd" clip-rule="evenodd" d="M28.7297 10.822C29.8476 10.2894 31.1799 10.5186 32.0556 11.3943C32.0559 11.3939 32.0559 11.3939 32.0559 11.394C32.9316 12.2697 33.1608 13.602 32.6282 14.72C32.2805 15.4537 31.889 16.204 31.5847 16.5758C31.0222 17.2633 30.0238 18.3863 29.2293 17.9891C27.9731 17.361 26.0887 15.4766 25.4606 14.2204C25.0634 13.4259 26.1864 12.4275 26.8739 11.865C27.2457 11.5607 27.9958 11.1692 28.7297 10.822Z" fill="white"/>
<path fill-rule="evenodd" clip-rule="evenodd" d="M26.7518 14.5355C26.7518 14.5355 27.984 12.8699 28.6301 12.5368C29.2223 12.2316 30.6288 12.5368 30.6288 12.5368L26.7518 14.5355Z" fill="black"/>
<path fill-rule="evenodd" clip-rule="evenodd" d="M29.1864 16.5598C28.7423 14.2249 26.7012 12.5353 24.3245 12.5353C23.2523 12.5347 22.108 12.5347 21.0425 12.5347C18.7067 12.5347 16.6887 14.1676 16.2016 16.452C15.8024 18.3386 15.1337 20.436 14.0364 21.5853C10.0013 25.8126 10.4137 30.1358 12.799 32.5211C15.7786 35.5005 28.9899 35.5909 31.9697 32.6119C35.4366 29.1458 35.189 25.0537 31.3601 21.5853C30.1905 20.5259 29.5435 18.4541 29.1864 16.5598Z" fill="white"/>
<path fill-rule="evenodd" clip-rule="evenodd" d="M22.6995 24.0592C22.6995 24.0592 22.2161 24.6945 21.8251 24.8058C21.3879 24.9302 20.5134 24.8581 20.0762 24.8058C19.7631 24.7684 19.2018 24.4922 19.2018 24.4922C19.2018 24.4922 20.6147 25.1218 21.1404 25.6146C21.6536 26.0958 22.055 27.4015 22.5105 27.707C22.5724 27.7484 22.6352 27.7715 22.6995 27.7715C23.2371 27.7715 23.7829 26.1611 24.3659 25.6146C24.8718 25.1403 26.1973 24.4922 26.1973 24.4922C26.1973 24.4922 25.6359 24.7684 25.3228 24.8058C24.8856 24.8581 24.0112 24.9302 23.574 24.8058C23.1829 24.6945 22.6995 24.0592 22.6995 24.0592Z" fill="black"/>
<path fill-rule="evenodd" clip-rule="evenodd" d="M22.7559 27.2152C22.4644 27.2152 21.826 26.0815 21.826 26.0815C21.826 26.0815 22.3925 25.5383 22.684 25.5383C22.9755 25.5383 23.5749 26.0815 23.5749 26.0815C23.5749 26.0815 23.0473 27.2152 22.7559 27.2152Z" fill="white"/>
<path d="M22.7001 24.0605C23.8039 24.0605 24.6987 23.1635 24.6987 22.0569C24.6987 20.9504 23.8039 20.0534 22.7001 20.0534C21.5962 20.0534 20.7014 20.9504 20.7014 22.0569C20.7014 23.1635 21.5962 24.0605 22.7001 24.0605Z" fill="black"/>
<path d="M19.7029 20.0593C20.2548 20.0593 20.7023 19.6119 20.7023 19.06C20.7023 18.5081 20.2548 18.0607 19.7029 18.0607C19.151 18.0607 18.7036 18.5081 18.7036 19.06C18.7036 19.6119 19.151 20.0593 19.7029 20.0593Z" fill="black"/>
<path d="M25.6963 20.0593C26.2483 20.0593 26.6957 19.6119 26.6957 19.06C26.6957 18.5081 26.2483 18.0607 25.6963 18.0607C25.1444 18.0607 24.697 18.5081 24.697 19.06C24.697 19.6119 25.1444 20.0593 25.6963 20.0593Z" fill="black"/>
</svg>
