<svg width="60" height="60" viewBox="0 0 60 60" fill="none" xmlns="http://www.w3.org/2000/svg">
    <path fill-rule="evenodd" clip-rule="evenodd" d="M35.2148 47.3582C35.2148 47.3582 40.3595 51.8366 43.0468 52.4713C46.8874 53.3789 58.2584 52.8018 58.2584 52.8018C58.2584 52.8018 49.9355 46.629 47.0231 43.4168C44.7683 40.9305 40.7836 33.5303 40.7836 33.5303L35.2148 47.3582Z" fill="black"/>
    <path d="M28.313 53.8833C41.6522 53.8833 52.4658 42.6114 52.4658 28.7068C52.4658 14.8022 41.6522 3.53027 28.313 3.53027C14.9737 3.53027 4.16016 14.8022 4.16016 28.7068C4.16016 42.6114 14.9737 53.8833 28.313 53.8833Z" fill="black"/>
    <path fill-rule="evenodd" clip-rule="evenodd" d="M19.7957 12.8797C18.2013 12.1202 16.3014 12.4471 15.0526 13.6959C15.0521 13.6955 15.0521 13.6955 15.0521 13.6955C13.8032 14.9443 13.4763 16.8444 14.2358 18.4389C14.7317 19.4852 15.2901 20.5552 15.724 21.0855C16.5262 22.066 17.9501 23.6675 19.0832 23.101C20.8747 22.2052 23.5621 19.5179 24.4578 17.7263C25.0244 16.5932 23.4228 15.1694 22.4423 14.3672C21.9121 13.9333 20.8423 13.375 19.7957 12.8797Z" fill="white"/>
    <path fill-rule="evenodd" clip-rule="evenodd" d="M22.4407 18.1757C22.4407 18.1757 20.6834 15.8004 19.762 15.3253C18.9175 14.89 16.9116 15.3253 16.9116 15.3253L22.4407 18.1757Z" fill="black"/>
    <path fill-rule="evenodd" clip-rule="evenodd" d="M36.8351 12.8797C38.4295 12.1202 40.3295 12.4471 41.5783 13.6959C41.5787 13.6955 41.5787 13.6955 41.5788 13.6955C42.8276 14.9443 43.1546 16.8444 42.395 18.4389C41.8991 19.4852 41.3407 20.5552 40.9068 21.0855C40.1046 22.066 38.6808 23.6675 37.5477 23.101C35.7561 22.2052 33.0688 19.5179 32.173 17.7263C31.6065 16.5932 33.208 15.1694 34.1885 14.3672C34.7188 13.9333 35.7886 13.375 36.8351 12.8797Z" fill="white"/>
    <path fill-rule="evenodd" clip-rule="evenodd" d="M34.0144 18.1757C34.0144 18.1757 35.7717 15.8004 36.6931 15.3253C37.5376 14.89 39.5435 15.3253 39.5435 15.3253L34.0144 18.1757Z" fill="black"/>
    <path fill-rule="evenodd" clip-rule="evenodd" d="M37.4865 21.0626C36.8532 17.7327 33.9422 15.3231 30.5528 15.3231C29.0237 15.3223 27.3918 15.3223 25.8722 15.3223C22.5411 15.3223 19.6632 17.651 18.9685 20.9089C18.3992 23.5994 17.4454 26.5906 15.8806 28.2297C10.126 34.2584 10.7141 40.4238 14.1159 43.8256C18.3652 48.0745 37.2062 48.2035 41.4559 43.955C46.4001 39.012 46.047 33.176 40.5866 28.2297C38.9185 26.7189 37.9958 23.7642 37.4865 21.0626Z" fill="white"/>
    <path fill-rule="evenodd" clip-rule="evenodd" d="M28.2353 31.7578C28.2353 31.7578 27.5459 32.6638 26.9882 32.8225C26.3647 33 25.1177 32.897 24.4941 32.8225C24.0476 32.7691 23.2471 32.3753 23.2471 32.3753C23.2471 32.3753 25.2621 33.2731 26.0118 33.9759C26.7437 34.6622 27.3161 36.5244 27.9658 36.96C28.054 37.0191 28.1436 37.052 28.2353 37.052C29.002 37.052 29.7804 34.7554 30.6118 33.9759C31.3333 33.2995 33.2235 32.3753 33.2235 32.3753C33.2235 32.3753 32.423 32.7691 31.9765 32.8225C31.353 32.897 30.1059 33 29.4824 32.8225C28.9247 32.6638 28.2353 31.7578 28.2353 31.7578Z" fill="black"/>
    <path fill-rule="evenodd" clip-rule="evenodd" d="M28.3158 36.2587C27.9001 36.2587 26.9897 34.6419 26.9897 34.6419C26.9897 34.6419 27.7976 33.8672 28.2133 33.8672C28.629 33.8672 29.4839 34.6419 29.4839 34.6419C29.4839 34.6419 28.7315 36.2587 28.3158 36.2587Z" fill="white"/>
    <path d="M28.2361 31.7596C29.8103 31.7596 31.0864 30.4803 31.0864 28.9023C31.0864 27.3242 29.8103 26.0449 28.2361 26.0449C26.6619 26.0449 25.3857 27.3242 25.3857 28.9023C25.3857 30.4803 26.6619 31.7596 28.2361 31.7596Z" fill="black"/>
    <path d="M23.9618 26.0535C24.7489 26.0535 25.387 25.4154 25.387 24.6283C25.387 23.8412 24.7489 23.2031 23.9618 23.2031C23.1747 23.2031 22.5366 23.8412 22.5366 24.6283C22.5366 25.4154 23.1747 26.0535 23.9618 26.0535Z" fill="black"/>
    <path d="M32.5092 26.0535C33.2962 26.0535 33.9343 25.4154 33.9343 24.6283C33.9343 23.8412 33.2962 23.2031 32.5092 23.2031C31.7221 23.2031 31.084 23.8412 31.084 24.6283C31.084 25.4154 31.7221 26.0535 32.5092 26.0535Z" fill="black"/>
</svg>
