<svg width="367" height="367" viewBox="0 0 367 367" fill="none" xmlns="http://www.w3.org/2000/svg">
<path fill-rule="evenodd" clip-rule="evenodd" d="M215.397 289.674C215.397 289.674 246.865 317.067 263.303 320.949C286.794 326.5 356.347 322.971 356.347 322.971C356.347 322.971 305.439 285.214 287.624 265.566C273.833 250.358 249.46 205.093 249.46 205.093L215.397 289.674Z" fill="black" fill-opacity="0.05"/>
<path d="M173.181 329.586C254.772 329.586 320.915 260.639 320.915 175.589C320.915 90.5397 254.772 21.5933 173.181 21.5933C91.5893 21.5933 25.4463 90.5397 25.4463 175.589C25.4463 260.639 91.5893 329.586 173.181 329.586Z" fill="black" fill-opacity="0.05"/>
<path fill-rule="evenodd" clip-rule="evenodd" d="M121.084 78.7809C111.331 74.1351 99.71 76.1348 92.0715 83.7733C92.0687 83.7705 92.0687 83.7705 92.0684 83.7708C84.4297 91.4095 82.4298 103.031 87.0758 112.785C90.1091 119.185 93.5245 125.729 96.1786 128.973C101.085 134.97 109.795 144.766 116.725 141.301C127.684 135.822 144.121 119.384 149.6 108.426C153.066 101.495 143.269 92.7862 137.272 87.8793C134.029 85.2255 127.485 81.8103 121.084 78.7809Z" fill="white"/>
<path fill-rule="evenodd" clip-rule="evenodd" d="M137.262 111.175C137.262 111.175 126.513 96.6459 120.877 93.7402C115.712 91.0772 103.443 93.7402 103.443 93.7402L137.262 111.175Z" fill="black" fill-opacity="0.05"/>
<path fill-rule="evenodd" clip-rule="evenodd" d="M225.308 78.7809C235.061 74.1351 246.682 76.1348 254.321 83.7733C254.323 83.7705 254.323 83.7705 254.324 83.7708C261.962 91.4095 263.962 103.031 259.316 112.785C256.283 119.185 252.868 125.729 250.213 128.973C245.307 134.97 236.597 144.766 229.667 141.301C218.708 135.822 202.271 119.384 196.792 108.426C193.326 101.495 203.123 92.7862 209.12 87.8793C212.363 85.2255 218.907 81.8103 225.308 78.7809Z" fill="white"/>
<path fill-rule="evenodd" clip-rule="evenodd" d="M208.055 111.175C208.055 111.175 218.804 96.6459 224.44 93.7402C229.605 91.0772 241.874 93.7402 241.874 93.7402L208.055 111.175Z" fill="black" fill-opacity="0.05"/>
<path fill-rule="evenodd" clip-rule="evenodd" d="M229.293 128.833C225.419 108.465 207.613 93.7265 186.881 93.7265C177.528 93.7212 167.546 93.7212 158.252 93.7212C137.876 93.7212 120.273 107.966 116.024 127.893C112.542 144.35 106.708 162.646 97.1365 172.672C61.9373 209.547 65.5346 247.259 86.3422 268.067C112.334 294.056 227.578 294.845 253.572 268.858C283.814 238.623 281.654 202.927 248.254 172.672C238.052 163.43 232.408 145.358 229.293 128.833Z" fill="white"/>
<path fill-rule="evenodd" clip-rule="evenodd" d="M172.706 194.252C172.706 194.252 168.489 199.794 165.078 200.764C161.264 201.85 153.636 201.22 149.822 200.764C147.091 200.438 142.195 198.029 142.195 198.029C142.195 198.029 154.52 203.52 159.106 207.82C163.583 212.017 167.084 223.407 171.057 226.072C171.597 226.433 172.145 226.634 172.706 226.634C177.396 226.634 182.157 212.587 187.242 207.82C191.656 203.682 203.217 198.029 203.217 198.029C203.217 198.029 198.321 200.438 195.59 200.764C191.776 201.22 184.148 201.85 180.334 200.764C176.923 199.794 172.706 194.252 172.706 194.252Z" fill="black" fill-opacity="0.05"/>
<path fill-rule="evenodd" clip-rule="evenodd" d="M173.198 221.783C170.656 221.783 165.087 211.893 165.087 211.893C165.087 211.893 170.029 207.154 172.571 207.154C175.114 207.154 180.343 211.893 180.343 211.893C180.343 211.893 175.741 221.783 173.198 221.783Z" fill="white"/>
<path d="M172.711 194.263C182.34 194.263 190.145 186.438 190.145 176.785C190.145 167.133 182.34 159.308 172.711 159.308C163.082 159.308 155.276 167.133 155.276 176.785C155.276 186.438 163.082 194.263 172.711 194.263Z" fill="black" fill-opacity="0.05"/>
<path d="M146.566 159.36C151.381 159.36 155.284 155.457 155.284 150.643C155.284 145.829 151.381 141.926 146.566 141.926C141.752 141.926 137.849 145.829 137.849 150.643C137.849 155.457 141.752 159.36 146.566 159.36Z" fill="black" fill-opacity="0.05"/>
<path d="M198.848 159.36C203.662 159.36 207.565 155.457 207.565 150.643C207.565 145.829 203.662 141.926 198.848 141.926C194.033 141.926 190.13 145.829 190.13 150.643C190.13 155.457 194.033 159.36 198.848 159.36Z" fill="black" fill-opacity="0.05"/>
</svg>
