<svg width="40" height="40" viewBox="0 0 40 40" fill="none" xmlns="http://www.w3.org/2000/svg">
<rect width="40" height="40" rx="4" fill="url(#paint0_linear_349_5192)"/>
<path d="M21.1535 21.642V27H18.94V21.642L13.943 13.32H15.8905C16.0868 13.32 16.242 13.3675 16.356 13.4625C16.47 13.5575 16.565 13.6778 16.641 13.8235L19.4435 18.7255C19.5702 18.9725 19.6842 19.2068 19.7855 19.4285C19.8932 19.6502 19.9882 19.8687 20.0705 20.084C20.1402 19.8623 20.2257 19.6438 20.327 19.4285C20.4283 19.2068 20.5423 18.9725 20.669 18.7255L23.4525 13.8235C23.5158 13.6968 23.6077 13.5828 23.728 13.4815C23.8483 13.3738 24.0035 13.32 24.1935 13.32H26.1505L21.1535 21.642Z" fill="white"/>
<defs>
<linearGradient id="paint0_linear_349_5192" x1="20" y1="0" x2="20" y2="40" gradientUnits="userSpaceOnUse">
<stop stop-color="#1F2E4D"/>
<stop offset="1" stop-color="#63718B"/>
</linearGradient>
</defs>
</svg>
